<svg xmlns="http://www.w3.org/2000/svg" xmlns:xlink="http://www.w3.org/1999/xlink"
  viewBox="0 0 512 512" width="512" height="512" preserveAspectRatio="xMidYMid meet"
  style="width: 100%; height: 100%; transform: translate3d(0px, 0px, 0px); content-visibility: visible;">
  <defs>
    <clipPath id="__lottie_element_59">
      <rect width="512" height="512" x="0" y="0"></rect>
    </clipPath>
  </defs>
  <g clip-path="url(#__lottie_element_59)">
    <g transform="matrix(1,0,0,1,256,256)" opacity="1" style="display: block;">
      <g opacity="1" transform="matrix(1,0,0,1,0,0)">
        <path fill="rgb(236,242,255)" fill-opacity="1"
          d=" M94.2490005493164,-65.13500213623047 C87.50199890136719,-65.13500213623047 82.08100128173828,-71.0999984741211 82.99700164794922,-78.01599884033203 C83.75399780273438,-83.7300033569336 88.91200256347656,-87.84300231933594 94.6760025024414,-87.84300231933594 C94.6760025024414,-87.84300231933594 203.8159942626953,-87.84300231933594 203.8159942626953,-87.84300231933594 C218.5709991455078,-87.84300231933594 228.04299926757812,-103.52200317382812 221.17799377441406,-116.58300018310547 C221.17799377441406,-116.58300018310547 220.9739990234375,-116.97200012207031 220.9739990234375,-116.97200012207031 C217.5449981689453,-123.49600219726562 210.781005859375,-127.58200073242188 203.41099548339844,-127.58200073242188 C203.41099548339844,-127.58200073242188 120.48200225830078,-127.58200073242188 120.48200225830078,-127.58200073242188 C116.83899688720703,-127.58200073242188 113.86000061035156,-130.56199645996094 113.86000061035156,-134.2050018310547 C113.86000061035156,-134.2050018310547 113.86000061035156,-134.2050018310547 113.86000061035156,-134.2050018310547 C113.86000061035156,-137.8470001220703 116.83899688720703,-140.8280029296875 120.48200225830078,-140.8280029296875 C120.48200225830078,-140.8280029296875 165.45899963378906,-140.8280029296875 165.45899963378906,-140.8280029296875 C182.88800048828125,-140.8280029296875 191.6269989013672,-161.73500061035156 179.5229949951172,-174.27499389648438 C134.0590057373047,-221.3780059814453 70.26899719238281,-250.6739959716797 -0.3659999966621399,-250.6739959716797 C-107.04399871826172,-250.6739959716797 -198.10299682617188,-183.8520050048828 -233.99899291992188,-89.78399658203125 C-241.51600646972656,-70.08599853515625 -226.76499938964844,-48.986000061035156 -205.6820068359375,-48.986000061035156 C-205.6820068359375,-48.986000061035156 -145.13999938964844,-48.986000061035156 -145.13999938964844,-48.986000061035156 C-140.4219970703125,-48.986000061035156 -136.18800354003906,-45.56100082397461 -135.71299743652344,-40.867000579833984 C-135.16799926757812,-35.479000091552734 -139.43099975585938,-30.891000747680664 -144.71400451660156,-30.891000747680664 C-144.71400451660156,-30.891000747680664 -220.1439971923828,-30.891000747680664 -220.1439971923828,-30.891000747680664 C-236.71400451660156,-30.891000747680664 -250.3459930419922,-17.549999237060547 -250.36599731445312,-0.9800000190734863 C-250.36599731445312,-0.878000020980835 -250.36599731445312,-0.7749999761581421 -250.36599731445312,-0.6729999780654907 C-250.36599731445312,136 -140.6929931640625,247.05599975585938 -4.552999973297119,249.29200744628906 C133.00599670410156,251.55099487304688 247.41700744628906,140.9290008544922 249.6020050048828,3.36899995803833 C249.88900756835938,-14.720999717712402 248.2429962158203,-32.374000549316406 244.8719940185547,-49.40700149536133 C243.0570068359375,-58.57500076293945 234.93099975585938,-65.13500213623047 225.5850067138672,-65.13500213623047 C225.5850067138672,-65.13500213623047 94.2490005493164,-65.13500213623047 94.2490005493164,-65.13500213623047z M-65.1780014038086,-85.64700317382812 C-65.1780014038086,-83.0459976196289 -67.30599975585938,-80.91699981689453 -69.90799713134766,-80.91699981689453 C-69.90799713134766,-80.91699981689453 -201.4250030517578,-80.91699981689453 -201.4250030517578,-80.91699981689453 C-204.02699279785156,-80.91699981689453 -206.15499877929688,-83.0459976196289 -206.15499877929688,-85.64700317382812 C-206.15499877929688,-85.64700317382812 -206.15499877929688,-85.64700317382812 -206.15499877929688,-85.64700317382812 C-206.15499877929688,-88.24800109863281 -204.02699279785156,-90.37699890136719 -201.4250030517578,-90.37699890136719 C-201.4250030517578,-90.37699890136719 -69.90799713134766,-90.37699890136719 -69.90799713134766,-90.37699890136719 C-67.30599975585938,-90.37699890136719 -65.1780014038086,-88.24800109863281 -65.1780014038086,-85.64700317382812 C-65.1780014038086,-85.64700317382812 -65.1780014038086,-85.64700317382812 -65.1780014038086,-85.64700317382812z"></path>
      </g>
      <g opacity="1" transform="matrix(1,0,0,1,0,0)">
        <path fill="rgb(213,226,255)" fill-opacity="1"
          d=" M191.83399963378906,159.19700622558594 C145.99400329589844,214.2760009765625 76.91200256347656,249.33399963378906 -0.37299999594688416,249.33399963378906 C-77.63899993896484,249.33399963378906 -146.7209930419922,214.2760009765625 -192.5800018310547,159.19700622558594 C-192.5800018310547,159.19700622558594 191.83399963378906,159.19700622558594 191.83399963378906,159.19700622558594z"></path>
      </g>
      <g opacity="1" transform="matrix(1,0,0,1,0,0)">
        <path fill="rgb(236,242,255)" fill-opacity="1"
          d=" M-232.27099609375,-45.83700180053711 C-232.27099609375,-40.84000015258789 -236.3209991455078,-36.78900146484375 -241.3179931640625,-36.78900146484375 C-246.31500244140625,-36.78900146484375 -250.36599731445312,-40.84000015258789 -250.36599731445312,-45.83700180053711 C-250.36599731445312,-50.83399963378906 -246.31500244140625,-54.88399887084961 -241.3179931640625,-54.88399887084961 C-236.3209991455078,-54.88399887084961 -232.27099609375,-50.83399963378906 -232.27099609375,-45.83700180053711z"></path>
      </g>
      <g opacity="1" transform="matrix(1,0,0,1,0,0)">
        <path fill="rgb(236,242,255)" fill-opacity="1"
          d=" M249.63400268554688,-82.43000030517578 C249.63400268554688,-76.11399841308594 244.51499938964844,-70.99500274658203 238.19900512695312,-70.99500274658203 C231.88299560546875,-70.99500274658203 226.76300048828125,-76.11399841308594 226.76300048828125,-82.43000030517578 C226.76300048828125,-88.74600219726562 231.88299560546875,-93.86499786376953 238.19900512695312,-93.86499786376953 C244.51499938964844,-93.86499786376953 249.63400268554688,-88.74600219726562 249.63400268554688,-82.43000030517578z"></path>
      </g>
      <g opacity="1" transform="matrix(1,0,0,1,0,0)">
        <path fill="rgb(236,242,255)" fill-opacity="1"
          d=" M202.03900146484375,-140.06399536132812 C202.03900146484375,-136.406005859375 199.07400512695312,-133.4409942626953 195.41600036621094,-133.4409942626953 C191.75799560546875,-133.4409942626953 188.79400634765625,-136.406005859375 188.79400634765625,-140.06399536132812 C188.79400634765625,-143.7220001220703 191.75799560546875,-146.68699645996094 195.41600036621094,-146.68699645996094 C199.07400512695312,-146.68699645996094 202.03900146484375,-143.7220001220703 202.03900146484375,-140.06399536132812z"></path>
      </g>
    </g>
    <g transform="matrix(1,0,0,1,256,256)" opacity="1" style="display: block;">
      <g opacity="1" transform="matrix(1,0,0,1,0,0)">
        <path fill="rgb(183,200,236)" fill-opacity="1"
          d=" M-165.9600067138672,73.8740005493164 C-169.2429962158203,49.79800033569336 -176.6840057373047,51.7140007019043 -181.12899780273438,55.43299865722656 C-183.34500122070312,57.2869987487793 -184.947998046875,59.75600051879883 -186.01100158691406,62.44300079345703 C-198.3939971923828,93.72599792480469 -185.58599853515625,151.0590057373047 -184.43800354003906,159.42300415039062 C-184.43800354003906,159.42300415039062 -172.2519989013672,159.42300415039062 -172.2519989013672,159.42300415039062 C-166.36000061035156,125.84400177001953 -163.0279998779297,95.375 -165.9600067138672,73.8740005493164z"></path>
      </g>
      <g opacity="1" transform="matrix(1,0,0,1,0,0)">
        <path fill="rgb(155,173,214)" fill-opacity="1"
          d=" M-165.99600219726562,114.3030014038086 C-175.4759979248047,126.62999725341797 -182.23800659179688,143.10800170898438 -185.63099670410156,152.5260009765625 C-185.05299377441406,155.76400756835938 -184.61099243164062,158.16000366210938 -184.43800354003906,159.42300415039062 C-184.43800354003906,159.42300415039062 -172.2519989013672,159.42300415039062 -172.2519989013672,159.42300415039062 C-169.45199584960938,143.46600341796875 -167.24200439453125,128.2270050048828 -165.99600219726562,114.3030014038086z"></path>
      </g>
      <g opacity="1" transform="matrix(1,0,0,1,0,0)">
        <path fill="rgb(155,173,214)" fill-opacity="1"
          d=" M-184.43800354003906,159.42300415039062 C-184.43800354003906,159.42300415039062 -172.99400329589844,159.42300415039062 -172.99400329589844,159.42300415039062 C-172.99400329589844,159.42300415039062 -173.08999633789062,158.8159942626953 -173.08999633789062,158.8159942626953 C-176.83299255371094,135.01499938964844 -184.79299926757812,114.33100128173828 -191.3509979248047,100.29199981689453 C-191.0489959716797,126.9540023803711 -185.19700622558594,153.89300537109375 -184.43800354003906,159.42300415039062z"></path>
      </g>
      <g opacity="1" transform="matrix(1,0,0,1,0,0)">
        <path fill="rgb(183,200,236)" fill-opacity="1"
          d=" M-203.55599975585938,85.34700012207031 C-205.1479949951172,82.65699768066406 -207.2969970703125,80.31300354003906 -209.9810028076172,78.71299743652344 C-214.5449981689453,75.99099731445312 -221.04600524902344,75.15899658203125 -223.26400756835938,90.0770034790039 C-226.54200744628906,112.12899780273438 -195.14999389648438,153.28500366210938 -190.3520050048828,159.42300415039062 C-190.3520050048828,159.42300415039062 -176.947998046875,159.42300415039062 -176.947998046875,159.42300415039062 C-182.69400024414062,122.8759994506836 -198.4199981689453,94.0260009765625 -203.55599975585938,85.34700012207031z"></path>
      </g>
      <g opacity="1" transform="matrix(1,0,0,1,0,0)">
        <path fill="rgb(155,173,214)" fill-opacity="1"
          d=" M-217.73199462890625,77.93099975585938 C-217.73199462890625,77.93099975585938 -184.802001953125,159.42300415039062 -184.802001953125,159.42300415039062 C-184.802001953125,159.42300415039062 -182.77499389648438,159.42300415039062 -182.77499389648438,159.42300415039062 C-182.77499389648438,159.30099487304688 -182.7949981689453,159.17799377441406 -182.843994140625,159.05799865722656 C-182.843994140625,159.05799865722656 -215.90499877929688,77.24400329589844 -215.90499877929688,77.24400329589844 C-216.5260009765625,77.35600280761719 -217.13699340820312,77.5780029296875 -217.73199462890625,77.93099975585938z"></path>
      </g>
      <g opacity="1" transform="matrix(1,0,0,1,0,0)">
        <path fill="rgb(155,173,214)" fill-opacity="1"
          d=" M-176.947998046875,159.42300415039062 C-177.97799682617188,152.8719940185547 -179.33200073242188,146.5749969482422 -180.88499450683594,140.58999633789062 C-184.3209991455078,148.468994140625 -186.60699462890625,155.19200134277344 -187.58200073242188,158.22900390625 C-187.58200073242188,158.22900390625 -187.96499633789062,159.42300415039062 -187.96499633789062,159.42300415039062 C-187.96499633789062,159.42300415039062 -176.947998046875,159.42300415039062 -176.947998046875,159.42300415039062z"></path>
      </g>
      <g opacity="1" transform="matrix(1,0,0,1,0,0)">
        <path fill="rgb(183,200,236)" fill-opacity="1"
          d=" M-141.19700622558594,159.42300415039062 C-129.68899536132812,137.05299377441406 -118.6719970703125,108.01899719238281 -135.72999572753906,102.97899627685547 C-162.29800415039062,95.12899780273438 -181.51199340820312,152.10299682617188 -183.86199951171875,159.42300415039062 C-183.86199951171875,159.42300415039062 -141.19700622558594,159.42300415039062 -141.19700622558594,159.42300415039062z"></path>
      </g>
      <g opacity="1" transform="matrix(1,0,0,1,0,0)">
        <path fill="rgb(155,173,214)" fill-opacity="1"
          d=" M-130.33399963378906,134.35400390625 C-130.52999877929688,134.28900146484375 -130.74200439453125,134.27000427246094 -130.9510040283203,134.3419952392578 C-130.9510040283203,134.3419952392578 -154.36900329589844,142.37100219726562 -154.36900329589844,142.37100219726562 C-154.36900329589844,142.37100219726562 -134.8560028076172,103.41600036621094 -134.8560028076172,103.41600036621094 C-134.83799743652344,103.37899780273438 -134.83799743652344,103.33999633789062 -134.8249969482422,103.302001953125 C-135.12399291992188,103.19200134277344 -135.41099548339844,103.072998046875 -135.72900390625,102.97899627685547 C-136.05999755859375,102.88099670410156 -136.38400268554688,102.83799743652344 -136.71299743652344,102.76000213623047 C-136.71299743652344,102.76000213623047 -155.68800354003906,140.64300537109375 -155.68800354003906,140.64300537109375 C-155.68800354003906,140.64300537109375 -158.6219940185547,112.51100158691406 -158.6219940185547,112.51100158691406 C-158.64700317382812,112.2699966430664 -158.76600646972656,112.06600189208984 -158.9290008544922,111.91200256347656 C-159.447998046875,112.46499633789062 -159.96400451660156,113.02799987792969 -160.47000122070312,113.61399841308594 C-160.47000122070312,113.61399841308594 -157.31300354003906,143.88699340820312 -157.31300354003906,143.88699340820312 C-157.31300354003906,143.88699340820312 -164.8769989013672,158.98599243164062 -164.8769989013672,158.98599243164062 C-164.947998046875,159.1269989013672 -164.97000122070312,159.2760009765625 -164.97000122070312,159.42300415039062 C-164.97000122070312,159.42300415039062 -162.91099548339844,159.42300415039062 -162.91099548339844,159.42300415039062 C-162.91099548339844,159.42300415039062 -155.61700439453125,144.86399841308594 -155.61700439453125,144.86399841308594 C-155.61700439453125,144.86399841308594 -131.04400634765625,136.43899536132812 -131.04400634765625,136.43899536132812 C-130.79800415039062,135.74000549316406 -130.56199645996094,135.0449981689453 -130.33399963378906,134.35400390625z"></path>
      </g>
      <g opacity="1" transform="matrix(1,0,0,1,0,0)">
        <path fill="rgb(155,173,214)" fill-opacity="1"
          d=" M-165.57699584960938,159.42300415039062 C-165.57699584960938,159.42300415039062 -163.61199951171875,159.42300415039062 -163.61199951171875,159.42300415039062 C-163.61199951171875,159.343994140625 -163.60299682617188,159.26499938964844 -163.6230010986328,159.18499755859375 C-163.6230010986328,159.18499755859375 -170.20700073242188,132.99899291992188 -170.20700073242188,132.99899291992188 C-170.2779998779297,132.7169952392578 -170.46800231933594,132.50399780273438 -170.70700073242188,132.3800048828125 C-171.08700561523438,133.11700439453125 -171.45799255371094,133.8520050048828 -171.8209991455078,134.58599853515625 C-171.8209991455078,134.58599853515625 -165.57699584960938,159.42300415039062 -165.57699584960938,159.42300415039062z"></path>
      </g>
    </g>
    <g
      transform="matrix(0.9953253865242004,0.09657847136259079,-0.09657847136259079,0.9953253865242004,271.8640441894531,241.22642517089844)"
      opacity="1" style="display: block;">
      <g opacity="1" transform="matrix(1,0,0,1,0,0)">
        <path fill="rgb(183,200,236)" fill-opacity="1"
          d=" M139.41600036621094,136.44500732421875 C138.95399475097656,136.34100341796875 138.5189971923828,136.2570037841797 138.11500549316406,136.18800354003906 C135.46200561523438,135.73500061035156 132.66200256347656,136.41000366210938 130.72799682617188,138.28199768066406 C128.5050048828125,140.43299865722656 127.27999877929688,144.25799560546875 132.80799865722656,150.63800048828125 C137.3260040283203,155.8520050048828 143.62100219726562,158.19000244140625 149.18800354003906,159.19700622558594 C149.18800354003906,159.19700622558594 174.33599853515625,159.19700622558594 174.33599853515625,159.19700622558594 C179.91200256347656,158.19400024414062 186.218994140625,155.86099243164062 190.7449951171875,150.63800048828125 C196.2729949951172,144.25799560546875 195.04800415039062,140.43299865722656 192.8249969482422,138.28199768066406 C190.89100646972656,136.41000366210938 188.09100341796875,135.73500061035156 185.43800354003906,136.18800354003906 C185.03399658203125,136.2570037841797 184.5989990234375,136.34100341796875 184.13699340820312,136.44500732421875 C177.00900268554688,138.04299926757812 171.0030059814453,142.82200622558594 167.49200439453125,149.22799682617188 C167.49200439453125,149.22799682617188 162.80999755859375,157.7689971923828 162.80999755859375,157.7689971923828 C160.3509979248047,149.6219940185547 159.4600067138672,138.906005859375 161.86199951171875,127.37699890136719 C166.2239990234375,128.89999389648438 180.1699981689453,132.8730010986328 190.78500366210938,125.73400115966797 C197.7899932861328,121.02300262451172 197.60899353027344,117.00900268554688 196.0260009765625,114.35199737548828 C194.6490020751953,112.03900146484375 192.1219940185547,110.65499877929688 189.4429931640625,110.39800262451172 C189.03500366210938,110.35900115966797 188.593994140625,110.3270034790039 188.12100219726562,110.30599975585938 C180.822998046875,109.98300170898438 173.7760009765625,113.0250015258789 168.71099853515625,118.28900146484375 C168.71099853515625,118.28900146484375 162.4770050048828,124.76699829101562 162.4770050048828,124.76699829101562 C164.19200134277344,117.89800262451172 167.06900024414062,110.80500030517578 171.52099609375,103.84200286865234 C172.45899963378906,102.375 173.32000732421875,100.82599639892578 174.12600708007812,99.22699737548828 C178.2209930419922,100.61900329589844 190.11000061035156,103.80899810791016 199.18899536132812,97.7030029296875 C205.3179931640625,93.58100128173828 205.15899658203125,90.06999969482422 203.7740020751953,87.74500274658203 C202.56900024414062,85.72100067138672 200.35899353027344,84.51100158691406 198.01499938964844,84.28600311279297 C197.6580047607422,84.25199890136719 197.27200317382812,84.2229995727539 196.85800170898438,84.20500183105469 C190.47300720214844,83.9229965209961 184.3070068359375,86.58399963378906 179.875,91.19000244140625 C179.875,91.19000244140625 175.9550018310547,95.26300048828125 175.9550018310547,95.26300048828125 C178.76499938964844,88.5739974975586 180.63099670410156,81.2030029296875 181.86900329589844,74.2490005493164 C185.51300048828125,74.68900299072266 197.4550018310547,75.4530029296875 204.7030029296875,67.82499694824219 C209.447998046875,62.83100128173828 208.59300231933594,59.66600036621094 206.86099243164062,57.83000183105469 C205.35400390625,56.231998443603516 203.0959930419922,55.57699966430664 200.91600036621094,55.84700012207031 C200.58399963378906,55.88800048828125 200.2270050048828,55.941001892089844 199.8470001220703,56.007999420166016 C193.9759979248047,57.04399871826172 188.89999389648438,60.715999603271484 185.79800415039062,65.80699920654297 C185.79800415039062,65.80699920654297 182.32899475097656,71.5 182.32899475097656,71.5 C183.5760040283203,63.59600067138672 184.03900146484375,56.45899963378906 184.2050018310547,51.810001373291016 C186.50799560546875,48.433998107910156 193.58599853515625,36.73699951171875 189.6510009765625,25.40399932861328 C187.08799743652344,18.023000717163086 183.45399475097656,17.238000869750977 180.70199584960938,18.027000427246094 C178.3070068359375,18.714000701904297 176.4709930419922,20.64900016784668 175.60899353027344,22.986000061035156 C175.47799682617188,23.341999053955078 175.34500122070312,23.729000091552734 175.21499633789062,24.14699935913086 C173.20399475097656,30.601999282836914 174.26100158691406,37.62799835205078 177.77699279785156,43.40399932861328 C177.77699279785156,43.40399932861328 182.26499938964844,50.777000427246094 182.26499938964844,50.777000427246094 C182.08700561523438,56.15299987792969 181.48800659179688,65.77899932861328 179.49899291992188,76.02899932861328 C179.49899291992188,76.02899932861328 179.16700744628906,70.48500061035156 179.16700744628906,70.48500061035156 C178.802001953125,64.38200378417969 175.968994140625,58.61800003051758 171.1479949951172,54.85900115966797 C170.83599853515625,54.6150016784668 170.53700256347656,54.39500045776367 170.25599670410156,54.19900131225586 C168.41099548339844,52.90700149536133 166.05099487304688,52.41600036621094 163.91799926757812,53.13999938964844 C161.4669952392578,53.97200012207031 159.17100524902344,56.428001403808594 161.0709991455078,63.231998443603516 C163.96800231933594,73.60800170898438 175.12100219726562,78.65399932861328 178.6540069580078,80.01599884033203 C176.91600036621094,87.6240005493164 174.35499572753906,95.2959976196289 170.59500122070312,101.5979995727539 C170.59500122070312,101.5979995727539 170.05499267578125,92.55699920654297 170.05499267578125,92.55699920654297 C169.66000366210938,85.947998046875 166.58999633789062,79.7040023803711 161.36900329589844,75.63300323486328 C161.031005859375,75.36900329589844 160.70700073242188,75.13099670410156 160.4029998779297,74.91799926757812 C158.40499877929688,73.51799774169922 155.8489990234375,72.98799896240234 153.53799438476562,73.77200317382812 C150.88299560546875,74.6729965209961 148.39700317382812,77.33200073242188 150.4550018310547,84.7020034790039 C153.66600036621094,96.2040023803711 166.2519989013672,101.66200256347656 169.75999450683594,102.9800033569336 C164.64599609375,111.03099822998047 161.54600524902344,119.25900268554688 159.92599487304688,127.13300323486328 C159.92599487304688,127.13300323486328 156.64700317382812,117.70800018310547 156.64700317382812,117.70800018310547 C154.16299438476562,110.56999969482422 148.85499572753906,104.66400146484375 141.85699462890625,101.81099700927734 C141.4040069580078,101.6259994506836 140.9739990234375,101.46600341796875 140.57400512695312,101.32599639892578 C137.94500732421875,100.40899658203125 134.97300720214844,100.61699676513672 132.67799377441406,102.19499969482422 C130.04100036621094,104.00800323486328 128.13400268554688,107.69999694824219 132.67999267578125,115.15699768066406 C139.74899291992188,126.75499725341797 155.20700073242188,128.8769989013672 159.53399658203125,129.24899291992188 C157.65899658203125,140.0399932861328 158.52200317382812,150.0489959716797 160.7899932861328,157.85400390625 C160.7899932861328,157.85400390625 156.06100463867188,149.22799682617188 156.06100463867188,149.22799682617188 C152.5489959716797,142.82200622558594 146.54400634765625,138.04299926757812 139.41600036621094,136.44500732421875z"></path>
      </g>
    </g>
    <g
      transform="matrix(-0.28400948643684387,0.9588214755058289,-0.9588214755058289,-0.28400948643684387,221.8045196533203,156.86314392089844)"
      opacity="1" style="display: block;">
      <g opacity="1" transform="matrix(1,0,0,1,0,0)">
        <path fill="rgb(183,200,236)" fill-opacity="1"
          d=" M90.2300033569336,-62.33599853515625 C90.2300033569336,-23.503000259399414 58.75,7.9770002365112305 19.91699981689453,7.9770002365112305 C-18.916000366210938,7.9770002365112305 -50.39500045776367,-23.503000259399414 -50.39500045776367,-62.33599853515625 C-50.39500045776367,-101.16899871826172 -18.916000366210938,-132.6479949951172 19.91699981689453,-132.6479949951172 C58.75,-132.6479949951172 90.2300033569336,-101.16899871826172 90.2300033569336,-62.33599853515625z M-101.55400085449219,-32.46200180053711 C-101.68000030517578,-32.46200180053711 -101.80400085449219,-32.5099983215332 -101.89900207519531,-32.60499954223633 C-102.08999633789062,-32.79600143432617 -102.08999633789062,-33.10499954223633 -101.89900207519531,-33.29600143432617 C-101.89900207519531,-33.29600143432617 48.95899963378906,-184.15199279785156 48.95899963378906,-184.15199279785156 C49.150001525878906,-184.34300231933594 49.45800018310547,-184.34300231933594 49.64899826049805,-184.15199279785156 C49.84000015258789,-183.96099853515625 49.84000015258789,-183.65199279785156 49.64899826049805,-183.46099853515625 C49.64899826049805,-183.46099853515625 -101.20899963378906,-32.60499954223633 -101.20899963378906,-32.60499954223633 C-101.30400085449219,-32.5099983215332 -101.4280014038086,-32.46200180053711 -101.55400085449219,-32.46200180053711z"></path>
      </g>
      <g opacity="1" transform="matrix(1,0,0,1,0,0)">
        <path fill="rgb(183,200,236)" fill-opacity="1"
          d=" M90.2300033569336,-62.33599853515625 C90.2300033569336,-23.503000259399414 58.75,7.9770002365112305 19.91699981689453,7.9770002365112305 C-18.916000366210938,7.9770002365112305 -50.39500045776367,-23.503000259399414 -50.39500045776367,-62.33599853515625 C-50.39500045776367,-101.16899871826172 -18.916000366210938,-132.6479949951172 19.91699981689453,-132.6479949951172 C58.75,-132.6479949951172 90.2300033569336,-101.16899871826172 90.2300033569336,-62.33599853515625z M-96.43900299072266,-27.34600067138672 C-96.56500244140625,-27.34600067138672 -96.68900299072266,-27.393999099731445 -96.78399658203125,-27.48900032043457 C-96.9749984741211,-27.68000030517578 -96.9749984741211,-27.988000869750977 -96.78399658203125,-28.179000854492188 C-96.78399658203125,-28.179000854492188 54.07400131225586,-179.03599548339844 54.07400131225586,-179.03599548339844 C54.26499938964844,-179.2270050048828 54.57400131225586,-179.2270050048828 54.76499938964844,-179.03599548339844 C54.95600128173828,-178.84500122070312 54.95600128173828,-178.53700256347656 54.76499938964844,-178.3459930419922 C54.76499938964844,-178.3459930419922 -96.09300231933594,-27.48900032043457 -96.09300231933594,-27.48900032043457 C-96.18800354003906,-27.393999099731445 -96.31300354003906,-27.34600067138672 -96.43900299072266,-27.34600067138672z"></path>
      </g>
      <g opacity="1" transform="matrix(1,0,0,1,0,0)">
        <path fill="rgb(183,200,236)" fill-opacity="1"
          d=" M90.2300033569336,-62.33599853515625 C90.2300033569336,-23.503000259399414 58.75,7.9770002365112305 19.91699981689453,7.9770002365112305 C-18.916000366210938,7.9770002365112305 -50.39500045776367,-23.503000259399414 -50.39500045776367,-62.33599853515625 C-50.39500045776367,-101.16899871826172 -18.916000366210938,-132.6479949951172 19.91699981689453,-132.6479949951172 C58.75,-132.6479949951172 90.2300033569336,-101.16899871826172 90.2300033569336,-62.33599853515625z M-91.32099914550781,-22.229999542236328 C-91.4469985961914,-22.229999542236328 -91.57099914550781,-22.277999877929688 -91.66600036621094,-22.37299919128418 C-91.85700225830078,-22.56399917602539 -91.85700225830078,-22.87299919128418 -91.66600036621094,-23.06399917602539 C-91.66600036621094,-23.06399917602539 59.189998626708984,-173.92100524902344 59.189998626708984,-173.92100524902344 C59.38100051879883,-174.11199951171875 59.68899917602539,-174.11199951171875 59.880001068115234,-173.92100524902344 C60.07099914550781,-173.72999572753906 60.07099914550781,-173.42100524902344 59.880001068115234,-173.22999572753906 C59.880001068115234,-173.22999572753906 -90.97599792480469,-22.37299919128418 -90.97599792480469,-22.37299919128418 C-91.07099914550781,-22.277999877929688 -91.19499969482422,-22.229999542236328 -91.32099914550781,-22.229999542236328z"></path>
      </g>
      <g opacity="1" transform="matrix(1,0,0,1,0,0)">
        <path fill="rgb(183,200,236)" fill-opacity="1"
          d=" M90.2300033569336,-62.33599853515625 C90.2300033569336,-23.503000259399414 58.75,7.9770002365112305 19.91699981689453,7.9770002365112305 C-18.916000366210938,7.9770002365112305 -50.39500045776367,-23.503000259399414 -50.39500045776367,-62.33599853515625 C-50.39500045776367,-101.16899871826172 -18.916000366210938,-132.6479949951172 19.91699981689453,-132.6479949951172 C58.75,-132.6479949951172 90.2300033569336,-101.16899871826172 90.2300033569336,-62.33599853515625z M-86.20600128173828,-17.114999771118164 C-86.33200073242188,-17.114999771118164 -86.45600128173828,-17.163000106811523 -86.5510025024414,-17.257999420166016 C-86.74199676513672,-17.448999404907227 -86.74199676513672,-17.756999969482422 -86.5510025024414,-17.947999954223633 C-86.5510025024414,-17.947999954223633 64.30500030517578,-168.8040008544922 64.30500030517578,-168.8040008544922 C64.49600219726562,-168.9949951171875 64.80500030517578,-168.9949951171875 64.99600219726562,-168.8040008544922 C65.18699645996094,-168.61300659179688 65.18699645996094,-168.30499267578125 64.99600219726562,-168.11399841308594 C64.99600219726562,-168.11399841308594 -85.86000061035156,-17.257999420166016 -85.86000061035156,-17.257999420166016 C-85.95500183105469,-17.163000106811523 -86.08000183105469,-17.114999771118164 -86.20600128173828,-17.114999771118164z"></path>
      </g>
      <g opacity="1" transform="matrix(1,0,0,1,0,0)">
        <path fill="rgb(183,200,236)" fill-opacity="1"
          d=" M90.2300033569336,-62.33599853515625 C90.2300033569336,-23.503000259399414 58.75,7.9770002365112305 19.91699981689453,7.9770002365112305 C-18.916000366210938,7.9770002365112305 -50.39500045776367,-23.503000259399414 -50.39500045776367,-62.33599853515625 C-50.39500045776367,-101.16899871826172 -18.916000366210938,-132.6479949951172 19.91699981689453,-132.6479949951172 C58.75,-132.6479949951172 90.2300033569336,-101.16899871826172 90.2300033569336,-62.33599853515625z M-81.08999633789062,-11.998000144958496 C-81.21600341796875,-11.998000144958496 -81.33999633789062,-12.045999526977539 -81.43499755859375,-12.140999794006348 C-81.6259994506836,-12.331999778747559 -81.6259994506836,-12.640999794006348 -81.43499755859375,-12.831999778747559 C-81.43499755859375,-12.831999778747559 69.4209976196289,-163.68899536132812 69.4209976196289,-163.68899536132812 C69.61199951171875,-163.8800048828125 69.91999816894531,-163.8800048828125 70.11100006103516,-163.68899536132812 C70.302001953125,-163.4980010986328 70.302001953125,-163.18899536132812 70.11100006103516,-162.9980010986328 C70.11100006103516,-162.9980010986328 -80.74500274658203,-12.140999794006348 -80.74500274658203,-12.140999794006348 C-80.83999633789062,-12.045999526977539 -80.96399688720703,-11.998000144958496 -81.08999633789062,-11.998000144958496z"></path>
      </g>
      <g opacity="1" transform="matrix(1,0,0,1,0,0)">
        <path fill="rgb(183,200,236)" fill-opacity="1"
          d=" M90.2300033569336,-62.33599853515625 C90.2300033569336,-23.503000259399414 58.75,7.9770002365112305 19.91699981689453,7.9770002365112305 C-18.916000366210938,7.9770002365112305 -50.39500045776367,-23.503000259399414 -50.39500045776367,-62.33599853515625 C-50.39500045776367,-101.16899871826172 -18.916000366210938,-132.6479949951172 19.91699981689453,-132.6479949951172 C58.75,-132.6479949951172 90.2300033569336,-101.16899871826172 90.2300033569336,-62.33599853515625z M-75.9749984741211,-6.882999897003174 C-76.10099792480469,-6.882999897003174 -76.2249984741211,-6.931000232696533 -76.31999969482422,-7.026000022888184 C-76.51100158691406,-7.2170000076293945 -76.51100158691406,-7.525000095367432 -76.31999969482422,-7.716000080108643 C-76.31999969482422,-7.716000080108643 74.53600311279297,-158.572998046875 74.53600311279297,-158.572998046875 C74.72699737548828,-158.76400756835938 75.03600311279297,-158.76400756835938 75.22699737548828,-158.572998046875 C75.41799926757812,-158.3820037841797 75.41799926757812,-158.07400512695312 75.22699737548828,-157.88299560546875 C75.22699737548828,-157.88299560546875 -75.62899780273438,-7.026000022888184 -75.62899780273438,-7.026000022888184 C-75.7239990234375,-6.931000232696533 -75.8489990234375,-6.882999897003174 -75.9749984741211,-6.882999897003174z"></path>
      </g>
      <g opacity="1" transform="matrix(1,0,0,1,0,0)">
        <path fill="rgb(183,200,236)" fill-opacity="1"
          d=" M90.2300033569336,-62.33599853515625 C90.2300033569336,-23.503000259399414 58.75,7.9770002365112305 19.91699981689453,7.9770002365112305 C-18.916000366210938,7.9770002365112305 -50.39500045776367,-23.503000259399414 -50.39500045776367,-62.33599853515625 C-50.39500045776367,-101.16899871826172 -18.916000366210938,-132.6479949951172 19.91699981689453,-132.6479949951172 C58.75,-132.6479949951172 90.2300033569336,-101.16899871826172 90.2300033569336,-62.33599853515625z M-70.85900115966797,-1.7669999599456787 C-70.98500061035156,-1.7669999599456787 -71.10900115966797,-1.815000057220459 -71.2040023803711,-1.909999966621399 C-71.3949966430664,-2.1010000705718994 -71.3949966430664,-2.4100000858306885 -71.2040023803711,-2.6010000705718994 C-71.2040023803711,-2.6010000705718994 79.65399932861328,-153.45700073242188 79.65399932861328,-153.45700073242188 C79.84500122070312,-153.6479949951172 80.15299987792969,-153.6479949951172 80.34400177001953,-153.45700073242188 C80.53500366210938,-153.26600646972656 80.53500366210938,-152.95700073242188 80.34400177001953,-152.76600646972656 C80.34400177001953,-152.76600646972656 -70.51399993896484,-1.909999966621399 -70.51399993896484,-1.909999966621399 C-70.60900115966797,-1.815000057220459 -70.73300170898438,-1.7669999599456787 -70.85900115966797,-1.7669999599456787z"></path>
      </g>
      <g opacity="1" transform="matrix(1,0,0,1,0,0)">
        <path fill="rgb(183,200,236)" fill-opacity="1"
          d=" M90.2300033569336,-62.33599853515625 C90.2300033569336,-23.503000259399414 58.75,7.9770002365112305 19.91699981689453,7.9770002365112305 C-18.916000366210938,7.9770002365112305 -50.39500045776367,-23.503000259399414 -50.39500045776367,-62.33599853515625 C-50.39500045776367,-101.16899871826172 -18.916000366210938,-132.6479949951172 19.91699981689453,-132.6479949951172 C58.75,-132.6479949951172 90.2300033569336,-101.16899871826172 90.2300033569336,-62.33599853515625z M-65.74400329589844,3.3489999771118164 C-65.87000274658203,3.3489999771118164 -65.99400329589844,3.3010001182556152 -66.08899688720703,3.2060000896453857 C-66.27999877929688,3.015000104904175 -66.27999877929688,2.7070000171661377 -66.08899688720703,2.5160000324249268 C-66.08899688720703,2.5160000324249268 84.76899719238281,-148.34100341796875 84.76899719238281,-148.34100341796875 C84.95999908447266,-148.53199768066406 85.26799774169922,-148.53199768066406 85.45899963378906,-148.34100341796875 C85.6500015258789,-148.14999389648438 85.6500015258789,-147.8419952392578 85.45899963378906,-147.6510009765625 C85.45899963378906,-147.6510009765625 -65.39800262451172,3.2060000896453857 -65.39800262451172,3.2060000896453857 C-65.49299621582031,3.3010001182556152 -65.61799621582031,3.3489999771118164 -65.74400329589844,3.3489999771118164z"></path>
      </g>
      <g opacity="1" transform="matrix(1,0,0,1,0,0)">
        <path fill="rgb(183,200,236)" fill-opacity="1"
          d=" M90.2300033569336,-62.33599853515625 C90.2300033569336,-23.503000259399414 58.75,7.9770002365112305 19.91699981689453,7.9770002365112305 C-18.916000366210938,7.9770002365112305 -50.39500045776367,-23.503000259399414 -50.39500045776367,-62.33599853515625 C-50.39500045776367,-101.16899871826172 -18.916000366210938,-132.6479949951172 19.91699981689453,-132.6479949951172 C58.75,-132.6479949951172 90.2300033569336,-101.16899871826172 90.2300033569336,-62.33599853515625z M-60.625999450683594,8.46500015258789 C-60.75199890136719,8.46500015258789 -60.875999450683594,8.416999816894531 -60.97100067138672,8.321999549865723 C-61.1619987487793,8.130999565124512 -61.1619987487793,7.822000026702881 -60.97100067138672,7.63100004196167 C-60.97100067138672,7.63100004196167 89.88500213623047,-143.2259979248047 89.88500213623047,-143.2259979248047 C90.07599639892578,-143.41700744628906 90.38400268554688,-143.41700744628906 90.57499694824219,-143.2259979248047 C90.76599884033203,-143.03500366210938 90.76599884033203,-142.7259979248047 90.57499694824219,-142.53500366210938 C90.57499694824219,-142.53500366210938 -60.28099822998047,8.321999549865723 -60.28099822998047,8.321999549865723 C-60.375999450683594,8.416999816894531 -60.5,8.46500015258789 -60.625999450683594,8.46500015258789z"></path>
      </g>
      <g opacity="1" transform="matrix(1,0,0,1,0,0)">
        <path fill="rgb(183,200,236)" fill-opacity="1"
          d=" M90.2300033569336,-62.33599853515625 C90.2300033569336,-23.503000259399414 58.75,7.9770002365112305 19.91699981689453,7.9770002365112305 C-18.916000366210938,7.9770002365112305 -50.39500045776367,-23.503000259399414 -50.39500045776367,-62.33599853515625 C-50.39500045776367,-101.16899871826172 -18.916000366210938,-132.6479949951172 19.91699981689453,-132.6479949951172 C58.75,-132.6479949951172 90.2300033569336,-101.16899871826172 90.2300033569336,-62.33599853515625z M-55.51100158691406,13.579999923706055 C-55.637001037597656,13.579999923706055 -55.76100158691406,13.531999588012695 -55.85599899291992,13.437000274658203 C-56.047000885009766,13.246000289916992 -56.047000885009766,12.937999725341797 -55.85599899291992,12.746999740600586 C-55.85599899291992,12.746999740600586 95,-138.10899353027344 95,-138.10899353027344 C95.19100189208984,-138.3000030517578 95.4990005493164,-138.3000030517578 95.69000244140625,-138.10899353027344 C95.88099670410156,-137.91799926757812 95.88099670410156,-137.61000061035156 95.69000244140625,-137.41900634765625 C95.69000244140625,-137.41900634765625 -55.16600036621094,13.437000274658203 -55.16600036621094,13.437000274658203 C-55.26100158691406,13.531999588012695 -55.3849983215332,13.579999923706055 -55.51100158691406,13.579999923706055z"></path>
      </g>
      <g opacity="1" transform="matrix(1,0,0,1,0,0)">
        <path fill="rgb(183,200,236)" fill-opacity="1"
          d=" M90.2300033569336,-62.33599853515625 C90.2300033569336,-23.503000259399414 58.75,7.9770002365112305 19.91699981689453,7.9770002365112305 C-18.916000366210938,7.9770002365112305 -50.39500045776367,-23.503000259399414 -50.39500045776367,-62.33599853515625 C-50.39500045776367,-101.16899871826172 -18.916000366210938,-132.6479949951172 19.91699981689453,-132.6479949951172 C58.75,-132.6479949951172 90.2300033569336,-101.16899871826172 90.2300033569336,-62.33599853515625z M-50.39500045776367,18.69700050354004 C-50.520999908447266,18.69700050354004 -50.64500045776367,18.64900016784668 -50.7400016784668,18.554000854492188 C-50.930999755859375,18.363000869750977 -50.930999755859375,18.054000854492188 -50.7400016784668,17.863000869750977 C-50.7400016784668,17.863000869750977 100.11599731445312,-132.99400329589844 100.11599731445312,-132.99400329589844 C100.30699920654297,-133.18499755859375 100.61499786376953,-133.18499755859375 100.80599975585938,-132.99400329589844 C100.99700164794922,-132.80299377441406 100.99700164794922,-132.49400329589844 100.80599975585938,-132.30299377441406 C100.80599975585938,-132.30299377441406 -50.04999923706055,18.554000854492188 -50.04999923706055,18.554000854492188 C-50.14500045776367,18.64900016784668 -50.26900100708008,18.69700050354004 -50.39500045776367,18.69700050354004z"></path>
      </g>
      <g opacity="1" transform="matrix(1,0,0,1,0,0)">
        <path fill="rgb(183,200,236)" fill-opacity="1"
          d=" M90.2300033569336,-62.33599853515625 C90.2300033569336,-23.503000259399414 58.75,7.9770002365112305 19.91699981689453,7.9770002365112305 C-18.916000366210938,7.9770002365112305 -50.39500045776367,-23.503000259399414 -50.39500045776367,-62.33599853515625 C-50.39500045776367,-101.16899871826172 -18.916000366210938,-132.6479949951172 19.91699981689453,-132.6479949951172 C58.75,-132.6479949951172 90.2300033569336,-101.16899871826172 90.2300033569336,-62.33599853515625z M-45.279998779296875,23.812000274658203 C-45.40599822998047,23.812000274658203 -45.529998779296875,23.763999938964844 -45.625,23.66900062561035 C-45.816001892089844,23.47800064086914 -45.816001892089844,23.170000076293945 -45.625,22.979000091552734 C-45.625,22.979000091552734 105.23100280761719,-127.87799835205078 105.23100280761719,-127.87799835205078 C105.4219970703125,-128.06900024414062 105.73100280761719,-128.06900024414062 105.9219970703125,-127.87799835205078 C106.11299896240234,-127.68699645996094 106.11299896240234,-127.37899780273438 105.9219970703125,-127.18800354003906 C105.9219970703125,-127.18800354003906 -44.935001373291016,23.66900062561035 -44.935001373291016,23.66900062561035 C-45.029998779296875,23.763999938964844 -45.15399932861328,23.812000274658203 -45.279998779296875,23.812000274658203z"></path>
      </g>
      <g opacity="1" transform="matrix(1,0,0,1,0,0)">
        <path fill="rgb(183,200,236)" fill-opacity="1"
          d=" M90.2300033569336,-62.33599853515625 C90.2300033569336,-23.503000259399414 58.75,7.9770002365112305 19.91699981689453,7.9770002365112305 C-18.916000366210938,7.9770002365112305 -50.39500045776367,-23.503000259399414 -50.39500045776367,-62.33599853515625 C-50.39500045776367,-101.16899871826172 -18.916000366210938,-132.6479949951172 19.91699981689453,-132.6479949951172 C58.75,-132.6479949951172 90.2300033569336,-101.16899871826172 90.2300033569336,-62.33599853515625z M-40.16400146484375,28.929000854492188 C-40.290000915527344,28.929000854492188 -40.41400146484375,28.881000518798828 -40.50899887084961,28.785999298095703 C-40.70000076293945,28.594999313354492 -40.70000076293945,28.285999298095703 -40.50899887084961,28.094999313354492 C-40.50899887084961,28.094999313354492 110.3479995727539,-122.76200103759766 110.3479995727539,-122.76200103759766 C110.53900146484375,-122.9530029296875 110.8479995727539,-122.9530029296875 111.03900146484375,-122.76200103759766 C111.2300033569336,-122.57099914550781 111.2300033569336,-122.26200103759766 111.03900146484375,-122.07099914550781 C111.03900146484375,-122.07099914550781 -39.819000244140625,28.785999298095703 -39.819000244140625,28.785999298095703 C-39.91400146484375,28.881000518798828 -40.03799819946289,28.929000854492188 -40.16400146484375,28.929000854492188z"></path>
      </g>
      <g opacity="1" transform="matrix(1,0,0,1,0,0)">
        <path fill="rgb(183,200,236)" fill-opacity="1"
          d=" M90.2300033569336,-62.33599853515625 C90.2300033569336,-23.503000259399414 58.75,7.9770002365112305 19.91699981689453,7.9770002365112305 C-18.916000366210938,7.9770002365112305 -50.39500045776367,-23.503000259399414 -50.39500045776367,-62.33599853515625 C-50.39500045776367,-101.16899871826172 -18.916000366210938,-132.6479949951172 19.91699981689453,-132.6479949951172 C58.75,-132.6479949951172 90.2300033569336,-101.16899871826172 90.2300033569336,-62.33599853515625z M-35.04899978637695,34.04399871826172 C-35.17499923706055,34.04399871826172 -35.29899978637695,33.99599838256836 -35.39400100708008,33.9010009765625 C-35.584999084472656,33.709999084472656 -35.584999084472656,33.402000427246094 -35.39400100708008,33.21099853515625 C-35.39400100708008,33.21099853515625 115.46399688720703,-117.64600372314453 115.46399688720703,-117.64600372314453 C115.65499877929688,-117.83699798583984 115.96299743652344,-117.83699798583984 116.15399932861328,-117.64600372314453 C116.34500122070312,-117.45500183105469 116.34500122070312,-117.14700317382812 116.15399932861328,-116.95600128173828 C116.15399932861328,-116.95600128173828 -34.702999114990234,33.9010009765625 -34.702999114990234,33.9010009765625 C-34.79800033569336,33.99599838256836 -34.92300033569336,34.04399871826172 -35.04899978637695,34.04399871826172z"></path>
      </g>
      <g opacity="1" transform="matrix(1,0,0,1,0,0)">
        <path fill="rgb(183,200,236)" fill-opacity="1"
          d=" M90.2300033569336,-62.33599853515625 C90.2300033569336,-23.503000259399414 58.75,7.9770002365112305 19.91699981689453,7.9770002365112305 C-18.916000366210938,7.9770002365112305 -50.39500045776367,-23.503000259399414 -50.39500045776367,-62.33599853515625 C-50.39500045776367,-101.16899871826172 -18.916000366210938,-132.6479949951172 19.91699981689453,-132.6479949951172 C58.75,-132.6479949951172 90.2300033569336,-101.16899871826172 90.2300033569336,-62.33599853515625z M-29.930999755859375,39.15999984741211 C-30.05699920654297,39.15999984741211 -30.18199920654297,39.11199951171875 -30.277000427246094,39.016998291015625 C-30.468000411987305,38.82600021362305 -30.468000411987305,38.516998291015625 -30.277000427246094,38.32600021362305 C-30.277000427246094,38.32600021362305 120.5790023803711,-112.52999877929688 120.5790023803711,-112.52999877929688 C120.7699966430664,-112.72100067138672 121.0790023803711,-112.72100067138672 121.2699966430664,-112.52999877929688 C121.46099853515625,-112.33899688720703 121.46099853515625,-112.02999877929688 121.2699966430664,-111.83899688720703 C121.2699966430664,-111.83899688720703 -29.586000442504883,39.016998291015625 -29.586000442504883,39.016998291015625 C-29.680999755859375,39.11199951171875 -29.80500030517578,39.15999984741211 -29.930999755859375,39.15999984741211z"></path>
      </g>
      <g opacity="1" transform="matrix(1,0,0,1,0,0)">
        <path fill="rgb(183,200,236)" fill-opacity="1"
          d=" M90.2300033569336,-62.33599853515625 C90.2300033569336,-23.503000259399414 58.75,7.9770002365112305 19.91699981689453,7.9770002365112305 C-18.916000366210938,7.9770002365112305 -50.39500045776367,-23.503000259399414 -50.39500045776367,-62.33599853515625 C-50.39500045776367,-101.16899871826172 -18.916000366210938,-132.6479949951172 19.91699981689453,-132.6479949951172 C58.75,-132.6479949951172 90.2300033569336,-101.16899871826172 90.2300033569336,-62.33599853515625z M-24.81599998474121,44.2760009765625 C-24.941999435424805,44.2760009765625 -25.06599998474121,44.22800064086914 -25.160999298095703,44.132999420166016 C-25.351999282836914,43.94200134277344 -25.351999282836914,43.63399887084961 -25.160999298095703,43.44300079345703 C-25.160999298095703,43.44300079345703 125.69499969482422,-107.41400146484375 125.69499969482422,-107.41400146484375 C125.88600158691406,-107.6050033569336 126.19400024414062,-107.6050033569336 126.38500213623047,-107.41400146484375 C126.57599639892578,-107.2229995727539 126.57599639892578,-106.91500091552734 126.38500213623047,-106.7239990234375 C126.38500213623047,-106.7239990234375 -24.47100067138672,44.132999420166016 -24.47100067138672,44.132999420166016 C-24.56599998474121,44.22800064086914 -24.690000534057617,44.2760009765625 -24.81599998474121,44.2760009765625z"></path>
      </g>
      <g opacity="1" transform="matrix(1,0,0,1,0,0)">
        <path fill="rgb(183,200,236)" fill-opacity="1"
          d=" M90.2300033569336,-62.33599853515625 C90.2300033569336,-23.503000259399414 58.75,7.9770002365112305 19.91699981689453,7.9770002365112305 C-18.916000366210938,7.9770002365112305 -50.39500045776367,-23.503000259399414 -50.39500045776367,-62.33599853515625 C-50.39500045776367,-101.16899871826172 -18.916000366210938,-132.6479949951172 19.91699981689453,-132.6479949951172 C58.75,-132.6479949951172 90.2300033569336,-101.16899871826172 90.2300033569336,-62.33599853515625z M-19.700000762939453,49.391998291015625 C-19.826000213623047,49.391998291015625 -19.951000213623047,49.34400177001953 -20.04599952697754,49.249000549316406 C-20.23699951171875,49.05799865722656 -20.23699951171875,48.749000549316406 -20.04599952697754,48.55799865722656 C-20.04599952697754,48.55799865722656 130.81100463867188,-102.29900360107422 130.81100463867188,-102.29900360107422 C131.0019989013672,-102.48999786376953 131.30999755859375,-102.48999786376953 131.50100708007812,-102.29900360107422 C131.69200134277344,-102.10800170898438 131.69200134277344,-101.79900360107422 131.50100708007812,-101.60800170898438 C131.50100708007812,-101.60800170898438 -19.354999542236328,49.249000549316406 -19.354999542236328,49.249000549316406 C-19.450000762939453,49.34400177001953 -19.573999404907227,49.391998291015625 -19.700000762939453,49.391998291015625z"></path>
      </g>
      <g opacity="1" transform="matrix(1,0,0,1,0,0)">
        <path fill="rgb(183,200,236)" fill-opacity="1"
          d=" M90.2300033569336,-62.33599853515625 C90.2300033569336,-23.503000259399414 58.75,7.9770002365112305 19.91699981689453,7.9770002365112305 C-18.916000366210938,7.9770002365112305 -50.39500045776367,-23.503000259399414 -50.39500045776367,-62.33599853515625 C-50.39500045776367,-101.16899871826172 -18.916000366210938,-132.6479949951172 19.91699981689453,-132.6479949951172 C58.75,-132.6479949951172 90.2300033569336,-101.16899871826172 90.2300033569336,-62.33599853515625z M-14.585000038146973,54.50699996948242 C-14.711000442504883,54.50699996948242 -14.835000038146973,54.45899963378906 -14.930000305175781,54.36399841308594 C-15.121000289916992,54.17300033569336 -15.121000289916992,53.8650016784668 -14.930000305175781,53.67399978637695 C-14.930000305175781,53.67399978637695 135.92599487304688,-97.18199920654297 135.92599487304688,-97.18199920654297 C136.11700439453125,-97.37300109863281 136.4250030517578,-97.37300109863281 136.61599731445312,-97.18199920654297 C136.8070068359375,-96.99099731445312 136.8070068359375,-96.68299865722656 136.61599731445312,-96.49199676513672 C136.61599731445312,-96.49199676513672 -14.239999771118164,54.36399841308594 -14.239999771118164,54.36399841308594 C-14.335000038146973,54.45899963378906 -14.458999633789062,54.50699996948242 -14.585000038146973,54.50699996948242z"></path>
      </g>
      <g opacity="1" transform="matrix(1,0,0,1,0,0)">
        <path fill="rgb(183,200,236)" fill-opacity="1"
          d=" M90.2300033569336,-62.33599853515625 C90.2300033569336,-23.503000259399414 58.75,7.9770002365112305 19.91699981689453,7.9770002365112305 C-18.916000366210938,7.9770002365112305 -50.39500045776367,-23.503000259399414 -50.39500045776367,-62.33599853515625 C-50.39500045776367,-101.16899871826172 -18.916000366210938,-132.6479949951172 19.91699981689453,-132.6479949951172 C58.75,-132.6479949951172 90.2300033569336,-101.16899871826172 90.2300033569336,-62.33599853515625z M-9.468999862670898,59.624000549316406 C-9.595000267028809,59.624000549316406 -9.718999862670898,59.57600021362305 -9.814000129699707,59.48099899291992 C-10.005000114440918,59.290000915527344 -10.005000114440918,58.98099899291992 -9.814000129699707,58.790000915527344 C-9.814000129699707,58.790000915527344 141.04299926757812,-92.06700134277344 141.04299926757812,-92.06700134277344 C141.23399353027344,-92.25800323486328 141.54299926757812,-92.25800323486328 141.73399353027344,-92.06700134277344 C141.9250030517578,-91.8759994506836 141.9250030517578,-91.56700134277344 141.73399353027344,-91.3759994506836 C141.73399353027344,-91.3759994506836 -9.12399959564209,59.48099899291992 -9.12399959564209,59.48099899291992 C-9.218999862670898,59.57600021362305 -9.343000411987305,59.624000549316406 -9.468999862670898,59.624000549316406z"></path>
      </g>
    </g>
    <g transform="matrix(1,0,0,1,256,256)" opacity="1" style="display: block;">
      <g opacity="1" transform="matrix(1,0,0,1,0,0)">
        <path fill="rgb(80,111,255)" fill-opacity="1"
          d=" M104.6709976196289,-85.64700317382812 C104.6709976196289,-85.64700317382812 -118.3219985961914,-85.64700317382812 -118.3219985961914,-85.64700317382812 C-127.5009994506836,-85.64700317382812 -134.9409942626953,-78.20600128173828 -134.9409942626953,-69.02799987792969 C-134.9409942626953,-69.02799987792969 -134.9409942626953,142.57699584960938 -134.9409942626953,142.57699584960938 C-134.9409942626953,151.7570037841797 -127.5009994506836,159.19700622558594 -118.3219985961914,159.19700622558594 C-118.3219985961914,159.19700622558594 104.6709976196289,159.19700622558594 104.6709976196289,159.19700622558594 C113.8499984741211,159.19700622558594 121.29000091552734,151.7570037841797 121.29000091552734,142.57699584960938 C121.29000091552734,142.57699584960938 121.29000091552734,-69.02799987792969 121.29000091552734,-69.02799987792969 C121.29000091552734,-78.20600128173828 113.8499984741211,-85.64700317382812 104.6709976196289,-85.64700317382812z"></path>
      </g>
      <g opacity="1" transform="matrix(1,0,0,1,0,0)">
        <path fill="rgb(106,132,255)" fill-opacity="1"
          d=" M121.29000091552734,-39.02399826049805 C121.29000091552734,-39.02399826049805 121.29000091552734,-69.02799987792969 121.29000091552734,-69.02799987792969 C121.29000091552734,-78.20600128173828 113.8499984741211,-85.64700317382812 104.6709976196289,-85.64700317382812 C104.6709976196289,-85.64700317382812 -118.3219985961914,-85.64700317382812 -118.3219985961914,-85.64700317382812 C-127.5009994506836,-85.64700317382812 -134.9409942626953,-78.20600128173828 -134.9409942626953,-69.02799987792969 C-134.9409942626953,-69.02799987792969 -134.9409942626953,-39.02399826049805 -134.9409942626953,-39.02399826049805 C-134.9409942626953,-39.02399826049805 121.29000091552734,-39.02399826049805 121.29000091552734,-39.02399826049805z"></path>
      </g>
      <g opacity="1" transform="matrix(1,0,0,1,0,0)">
        <path fill="rgb(255,255,255)" fill-opacity="1"
          d=" M-109.80699920654297,-67.8489990234375 C-112.85099792480469,-67.8489990234375 -115.31900024414062,-65.37999725341797 -115.31900024414062,-62.33599853515625 C-115.31900024414062,-59.29199981689453 -112.85099792480469,-56.823001861572266 -109.80699920654297,-56.823001861572266 C-106.76300048828125,-56.823001861572266 -104.29399871826172,-59.29199981689453 -104.29399871826172,-62.33599853515625 C-104.29399871826172,-65.37999725341797 -106.76300048828125,-67.8489990234375 -109.80699920654297,-67.8489990234375z"></path>
      </g>
      <g opacity="1" transform="matrix(1,0,0,1,0,0)">
        <path fill="rgb(255,255,255)" fill-opacity="1"
          d=" M-90.66400146484375,-67.8489990234375 C-93.70800018310547,-67.8489990234375 -96.1760025024414,-65.37999725341797 -96.1760025024414,-62.33599853515625 C-96.1760025024414,-59.29199981689453 -93.70800018310547,-56.823001861572266 -90.66400146484375,-56.823001861572266 C-87.62000274658203,-56.823001861572266 -85.1510009765625,-59.29199981689453 -85.1510009765625,-62.33599853515625 C-85.1510009765625,-65.37999725341797 -87.62000274658203,-67.8489990234375 -90.66400146484375,-67.8489990234375z"></path>
      </g>
      <g opacity="1" transform="matrix(1,0,0,1,0,0)">
        <path fill="rgb(255,255,255)" fill-opacity="1"
          d=" M-71.52100372314453,-67.8489990234375 C-74.56500244140625,-67.8489990234375 -77.03299713134766,-65.37999725341797 -77.03299713134766,-62.33599853515625 C-77.03299713134766,-59.29199981689453 -74.56500244140625,-56.823001861572266 -71.52100372314453,-56.823001861572266 C-68.47699737548828,-56.823001861572266 -66.00800323486328,-59.29199981689453 -66.00800323486328,-62.33599853515625 C-66.00800323486328,-65.37999725341797 -68.47699737548828,-67.8489990234375 -71.52100372314453,-67.8489990234375z"></path>
      </g>
    </g>
    <g
      transform="matrix(0.9865458011627197,-0.16348499059677124,0.16348499059677124,0.9865458011627197,233.06190490722656,282.1436767578125)"
      opacity="1" style="display: block;">
      <g opacity="1" transform="matrix(1,0,0,1,0,0)">
        <path fill="rgb(255,96,112)" fill-opacity="1"
          d=" M155.75100708007812,133.65699768066406 C155.75100708007812,133.65699768066406 119.67400360107422,97.58200073242188 119.67400360107422,97.58200073242188 C115.57599639892578,93.48300170898438 109.70600128173828,92.322998046875 104.54199981689453,93.9749984741211 C104.54199981689453,93.9749984741211 100.3010025024414,89.73500061035156 100.3010025024414,89.73500061035156 C123.3219985961914,61.862998962402344 121.81099700927734,20.535999298095703 95.72899627685547,-5.545000076293945 C68.02100372314453,-33.255001068115234 23.097000122070312,-33.255001068115234 -4.611000061035156,-5.545000076293945 C-32.319000244140625,22.160999298095703 -32.319000244140625,67.08499908447266 -4.611000061035156,94.79299926757812 C21.47100067138672,120.8759994506836 62.79800033569336,122.38700103759766 90.66999816894531,99.36699676513672 C90.66999816894531,99.36699676513672 94.91000366210938,103.60700225830078 94.91000366210938,103.60700225830078 C93.25800323486328,108.7699966430664 94.41799926757812,114.64099884033203 98.51599884033203,118.73799896240234 C98.51599884033203,118.73799896240234 134.59300231933594,154.8159942626953 134.59300231933594,154.8159942626953 C140.4340057373047,160.656005859375 149.90899658203125,160.6580047607422 155.75100708007812,154.8159942626953 C155.75100708007812,154.8159942626953 155.75100708007812,154.8159942626953 155.75100708007812,154.8159942626953 C161.593994140625,148.9739990234375 161.5919952392578,139.4969940185547 155.75100708007812,133.65699768066406z"></path>
      </g>
      <g opacity="1" transform="matrix(1,0,0,1,0,0)">
        <path fill="rgb(255,255,255)" fill-opacity="1"
          d=" M86.25199890136719,85.31700134277344 C63.8129997253418,107.75599670410156 27.304000854492188,107.75499725341797 4.866000175476074,85.31700134277344 C-17.57200050354004,62.87900161743164 -17.572999954223633,26.371000289916992 4.866000175476074,3.931999921798706 C27.30500030517578,-18.506999969482422 63.81399917602539,-18.506000518798828 86.25199890136719,3.931999921798706 C108.69000244140625,26.3700008392334 108.69100189208984,62.87799835205078 86.25199890136719,85.31700134277344z"></path>
      </g>
      <g opacity="1" transform="matrix(1,0,0,1,0,0)">
        <path fill="rgb(72,197,161)" fill-opacity="1"
          d=" M31.18899917602539,39.78099822998047 C31.76099967956543,40.35300064086914 32.5099983215332,40.63999938964844 33.2599983215332,40.63999938964844 C34.0099983215332,40.63999938964844 34.7599983215332,40.35300064086914 35.332000732421875,39.78099822998047 C36.47600173950195,38.637001037597656 36.47600173950195,36.78099822998047 35.332000732421875,35.63800048828125 C35.332000732421875,35.63800048828125 28.075000762939453,28.381000518798828 28.075000762939453,28.381000518798828 C28.075000762939453,28.381000518798828 35.332000732421875,21.125 35.332000732421875,21.125 C36.47600173950195,19.98200035095215 36.47600173950195,18.12700080871582 35.332000732421875,16.982999801635742 C34.1879997253418,15.83899974822998 32.33300018310547,15.83899974822998 31.18899917602539,16.982999801635742 C31.18899917602539,16.982999801635742 23.93199920654297,24.238000869750977 23.93199920654297,24.238000869750977 C23.93199920654297,24.238000869750977 16.676000595092773,16.982999801635742 16.676000595092773,16.982999801635742 C15.531999588012695,15.83899974822998 13.677000045776367,15.83899974822998 12.532999992370605,16.982999801635742 C11.388999938964844,18.12700080871582 11.388999938964844,19.98200035095215 12.532999992370605,21.125 C12.532999992370605,21.125 19.790000915527344,28.381000518798828 19.790000915527344,28.381000518798828 C19.790000915527344,28.381000518798828 12.532999992370605,35.63800048828125 12.532999992370605,35.63800048828125 C11.388999938964844,36.78099822998047 11.388999938964844,38.637001037597656 12.532999992370605,39.78099822998047 C13.104999542236328,40.35300064086914 13.854000091552734,40.63999938964844 14.604000091552734,40.63999938964844 C15.354000091552734,40.63999938964844 16.104000091552734,40.35300064086914 16.676000595092773,39.78099822998047 C16.676000595092773,39.78099822998047 23.93199920654297,32.52399826049805 23.93199920654297,32.52399826049805 C23.93199920654297,32.52399826049805 31.18899917602539,39.78099822998047 31.18899917602539,39.78099822998047z"></path>
      </g>
      <g opacity="1" transform="matrix(1,0,0,1,0,0)">
        <path fill="rgb(72,197,161)" fill-opacity="1"
          d=" M71.3280029296875,28.381000518798828 C71.3280029296875,28.381000518798828 78.58499908447266,21.125 78.58499908447266,21.125 C79.72899627685547,19.98200035095215 79.72899627685547,18.12700080871582 78.58499908447266,16.982999801635742 C77.44100189208984,15.83899974822998 75.58599853515625,15.83899974822998 74.44200134277344,16.982999801635742 C74.44200134277344,16.982999801635742 67.18499755859375,24.238000869750977 67.18499755859375,24.238000869750977 C67.18499755859375,24.238000869750977 59.92900085449219,16.982999801635742 59.92900085449219,16.982999801635742 C58.78499984741211,15.83899974822998 56.93000030517578,15.83899974822998 55.7859992980957,16.982999801635742 C54.641998291015625,18.12700080871582 54.641998291015625,19.98200035095215 55.7859992980957,21.125 C55.7859992980957,21.125 63.042999267578125,28.381000518798828 63.042999267578125,28.381000518798828 C63.042999267578125,28.381000518798828 55.7859992980957,35.63800048828125 55.7859992980957,35.63800048828125 C54.641998291015625,36.78099822998047 54.641998291015625,38.637001037597656 55.7859992980957,39.78099822998047 C56.358001708984375,40.35300064086914 57.106998443603516,40.63999938964844 57.856998443603516,40.63999938964844 C58.606998443603516,40.63999938964844 59.356998443603516,40.35300064086914 59.92900085449219,39.78099822998047 C59.92900085449219,39.78099822998047 67.18499755859375,32.52399826049805 67.18499755859375,32.52399826049805 C67.18499755859375,32.52399826049805 74.44200134277344,39.78099822998047 74.44200134277344,39.78099822998047 C75.01399993896484,40.35300064086914 75.76300048828125,40.63999938964844 76.51300048828125,40.63999938964844 C77.26300048828125,40.63999938964844 78.01300048828125,40.35300064086914 78.58499908447266,39.78099822998047 C79.72899627685547,38.637001037597656 79.72899627685547,36.78099822998047 78.58499908447266,35.63800048828125 C78.58499908447266,35.63800048828125 71.3280029296875,28.381000518798828 71.3280029296875,28.381000518798828z"></path>
      </g>
      <g opacity="1" transform="matrix(1,0,0,1,0,0)">
        <path fill="rgb(72,197,161)" fill-opacity="1"
          d=" M30.475000381469727,71.98300170898438 C34.632999420166016,67.82499694824219 40.09700012207031,65.74600219726562 45.560001373291016,65.74600219726562 C51.02299880981445,65.74600219726562 56.48699951171875,67.82499694824219 60.64500045776367,71.98300170898438 C62.12099838256836,73.45899963378906 64.69499969482422,73.45899963378906 66.16699981689453,71.98500061035156 C67.69100189208984,70.46099853515625 67.69100189208984,67.98400115966797 66.16899871826172,66.45999908447266 C54.80500030517578,55.09600067138672 36.314998626708984,55.09600067138672 24.951000213623047,66.45999908447266 C23.429000854492188,67.98400115966797 23.429000854492188,70.46099853515625 24.951000213623047,71.98300170898438 C26.472999572753906,73.50499725341797 28.952999114990234,73.50499725341797 30.475000381469727,71.98300170898438z"></path>
      </g>
    </g>
    <g transform="matrix(1,0,0,1,256,256)" opacity="1" style="display: block;">
      <g opacity="1" transform="matrix(1,0,0,1,0,0)">
        <path fill="rgb(242,188,25)" fill-opacity="1"
          d=" M-36.20600128173828,132.58900451660156 C-36.20600128173828,132.58900451660156 -82.2969970703125,56.948001861572266 -82.2969970703125,56.948001861572266 C-89.11699676513672,45.755001068115234 -105.36900329589844,45.755001068115234 -112.18900299072266,56.948001861572266 C-112.18900299072266,56.948001861572266 -158.27999877929688,132.58900451660156 -158.27999877929688,132.58900451660156 C-165.38699340820312,144.2519989013672 -156.99200439453125,159.19700622558594 -143.33399963378906,159.19700622558594 C-143.33399963378906,159.19700622558594 -51.152000427246094,159.19700622558594 -51.152000427246094,159.19700622558594 C-37.49399948120117,159.19700622558594 -29.099000930786133,144.2519989013672 -36.20600128173828,132.58900451660156z"></path>
      </g>
    </g>
    <g transform="matrix(1,0,0,1,256,256)" opacity="0.5302663437906745" style="display: block;">
      <g opacity="1" transform="matrix(1,0,0,1,0,0)">
        <path fill="rgb(255,255,255)" fill-opacity="1"
          d=" M-97.24299621582031,69.79100036621094 C-102.55599975585938,69.79100036621094 -106.78600311279297,74.24299621582031 -106.51599884033203,79.5479965209961 C-106.51599884033203,79.5479965209961 -104.21399688720703,124.81500244140625 -104.21399688720703,124.81500244140625 C-104.0250015258789,128.52499389648438 -100.95999908447266,131.43899536132812 -97.24299621582031,131.43899536132812 C-93.5260009765625,131.43899536132812 -90.46099853515625,128.52499389648438 -90.27200317382812,124.81500244140625 C-90.27200317382812,124.81500244140625 -87.97000122070312,79.5479965209961 -87.97000122070312,79.5479965209961 C-87.69999694824219,74.24299621582031 -91.93000030517578,69.79100036621094 -97.24299621582031,69.79100036621094z"></path>
      </g>
      <g opacity="1" transform="matrix(1,0,0,1,0,0)">
        <path fill="rgb(255,255,255)" fill-opacity="1"
          d=" M-97.24299621582031,139.44900512695312 C-100.90699768066406,139.44900512695312 -103.8759994506836,142.4199981689453 -103.8759994506836,146.08200073242188 C-103.8759994506836,149.7480010986328 -100.90699768066406,152.71600341796875 -97.24299621582031,152.71600341796875 C-93.58000183105469,152.71600341796875 -90.60900115966797,149.7480010986328 -90.60900115966797,146.08200073242188 C-90.60900115966797,142.4199981689453 -93.58000183105469,139.44900512695312 -97.24299621582031,139.44900512695312z"></path>
      </g>
    </g>
  </g>
</svg>