<?xml version="1.0" standalone="no"?>
<!DOCTYPE svg PUBLIC "-//W3C//DTD SVG 1.1//EN" "http://www.w3.org/Graphics/SVG/1.1/DTD/svg11.dtd">
<svg t="1726665437991" class="icon" viewBox="0 0 1024 1024" version="1.1"
  xmlns="http://www.w3.org/2000/svg" p-id="16162" xmlns:xlink="http://www.w3.org/1999/xlink"
  width="200" height="200">
  <path
    d="M515.584 753.399467c-60.416 0-116.224-16.981333-163.328-46.327467l125.952-57.130667L1024 380.2368l-75.776-22.647467-37.888 16.469334-31.744-2.056534-35.84-74.120533-79.872 36.027733-86.528 67.9424-65.536 14.933334-39.936 42.197333-301.568 170.888533c-32.256-44.782933-51.2-99.345067-51.2-157.508266 0-155.434667 133.12-281.540267 297.472-281.540267 7.168 0 13.824 0.512 20.992 1.024C521.728 188.7744 506.88 187.733333 491.52 187.733333c-173.056 0-313.344 145.152-313.344 324.266667a330.410667 330.410667 0 0 0 35.328 149.265067L0 782.225067l117.76 31.394133 154.624-69.998933C328.704 800.750933 406.016 836.266667 491.52 836.266667c162.816 0 296.448-128.170667 311.808-292.864-33.792 120.951467-150.016 209.9968-287.744 209.9968z"
    fill="#ffffff" p-id="16163"></path>
</svg>