<?xml version="1.0" standalone="no"?>
<!DOCTYPE svg PUBLIC "-//W3C//DTD SVG 1.1//EN" "http://www.w3.org/Graphics/SVG/1.1/DTD/svg11.dtd">
<svg t="1726741368304" class="icon" viewBox="0 0 1024 1024" version="1.1"
  xmlns="http://www.w3.org/2000/svg" p-id="12720" xmlns:xlink="http://www.w3.org/1999/xlink"
  width="200" height="200">
  <path
    d="M916.8 426c-23.9-21.7-57.3-40.9-99.2-57-11.6-4.5-23.7-8.6-36.3-12.5 2.9-12.8 5.4-25.4 7.3-37.7 7-44.4 7.1-82.9 0.2-114.4-5.7-26-19.4-61.1-52.9-80.4-33.4-19.3-70.7-13.7-96-5.6-30.8 9.8-64.1 29.1-99 57.4-9.7 7.8-19.3 16.2-29 25.2-9.7-9-19.3-17.4-29-25.2-34.9-28.2-68.2-47.5-99-57.4-25.4-8.1-62.6-13.7-96 5.6s-47.2 54.4-52.9 80.4c-6.9 31.6-6.8 70.1 0.2 114.4 1.9 12.3 4.4 24.8 7.3 37.7-12.6 3.9-24.7 8-36.3 12.5-41.9 16.1-75.3 35.3-99.2 57-19.5 18-43 47.4-43 86s23.5 68 43.2 86c23.9 21.7 57.3 40.9 99.2 57 11.6 4.5 23.7 8.6 36.3 12.5-2.9 12.8-5.4 25.4-7.3 37.7-7 44.4-7.1 82.9-0.2 114.4 5.7 26 19.4 61.1 52.9 80.4 16.7 9.6 34.4 13.1 51 13.1 16.7 0 32.3-3.4 45-7.5 30.8-9.8 64.1-29.1 99-57.4 9.7-7.8 19.3-16.2 29-25.2 9.7 9 19.3 17.4 29 25.2 34.9 28.2 68.2 47.5 99 57.4 12.7 4.1 28.3 7.5 45 7.5s34.3-3.4 51-13.1c33.4-19.3 47.2-54.4 52.9-80.4 6.9-31.6 6.8-70.1-0.2-114.4-1.9-12.3-4.4-24.8-7.3-37.7 12.6-3.9 24.7-8 36.3-12.5 41.9-16.1 75.3-35.3 99.2-57 19.7-17.9 43.2-47.4 43.2-86s-23.7-68-43.4-86z m-232-251.1c7.4 0 13.9 1.5 19.2 4.5 23.7 13.7 31.9 63.2 21.4 129.4-1.6 10.3-3.7 20.9-6.1 31.7-31.5-6.7-64.8-11.8-99.6-15.2-20.3-28.3-41.5-54.7-63-78.6 8.1-7.5 16.3-14.5 24.4-21.1 40.6-32.7 78-50.7 103.7-50.7z m5.1 412.5c4.4 11.6 8.5 23 12.3 34.3-11.7 2.4-23.6 4.6-35.9 6.6 4.1-6.7 8.1-13.5 12-20.3s7.8-13.7 11.6-20.6z m-67-11.4c-12.3 21.3-25.1 41.9-38.4 61.5-23.6 1.6-47.9 2.5-72.5 2.5s-48.8-0.8-72.5-2.5c-13.2-19.7-26.1-40.2-38.4-61.5s-23.7-42.7-34.1-64c10.4-21.3 21.8-42.7 34.1-64 12.3-21.3 25.1-41.9 38.4-61.5 23.6-1.6 47.9-2.5 72.5-2.5s48.8 0.8 72.5 2.5c13.2 19.7 26.1 40.2 38.4 61.5 12.3 21.3 23.7 42.7 34.1 64-10.5 21.3-21.9 42.7-34.1 64zM512 731.5c-7.9-8.9-15.8-18.2-23.6-27.8 7.8 0.2 15.7 0.3 23.6 0.3 7.9 0 15.8-0.1 23.6-0.3-7.8 9.7-15.7 18.9-23.6 27.8zM345.7 608c4 6.8 8 13.6 12 20.3-12.2-1.9-24.2-4.1-35.9-6.6 3.7-11.3 7.8-22.8 12.3-34.3 3.8 6.9 7.7 13.8 11.6 20.6z m-11.6-171.4c-4.4-11.6-8.5-23-12.3-34.3 11.7-2.4 23.6-4.6 35.9-6.6-4.1 6.7-8.1 13.5-12 20.3-3.9 6.8-7.8 13.7-11.6 20.6zM512 292.5c7.9 8.9 15.8 18.2 23.6 27.8-7.8-0.2-15.7-0.3-23.6-0.3s-15.8 0.1-23.6 0.3c7.8-9.7 15.7-18.9 23.6-27.8zM678.3 416c-4-6.8-8-13.6-12-20.3 12.2 1.9 24.2 4.1 35.9 6.6-3.7 11.3-7.8 22.8-12.3 34.3-3.8-6.9-7.7-13.8-11.6-20.6zM298.6 308.8c-10.4-66.1-2.2-115.7 21.4-129.4 5.3-3.1 11.7-4.5 19.2-4.5 25.8 0 63.2 18 103.6 50.7 8.1 6.6 16.3 13.6 24.4 21.1-21.5 23.9-42.6 50.3-63 78.6-34.7 3.5-68.1 8.6-99.6 15.2-2.4-10.8-4.4-21.4-6-31.7z m-69.3 286.5C166.8 571.2 128 539.3 128 512s38.8-59.2 101.3-83.3c9.7-3.7 19.9-7.3 30.5-10.6 9.9 30.6 22.2 62.1 36.6 93.8-14.4 31.8-26.6 63.3-36.6 93.8-10.6-3.2-20.7-6.7-30.5-10.4z m109.9 253.8c-7.4 0-13.9-1.5-19.2-4.5-23.7-13.7-31.9-63.2-21.4-129.4 1.6-10.3 3.7-20.9 6.1-31.7 31.5 6.7 64.8 11.8 99.6 15.2 20.3 28.3 41.5 54.7 63 78.6-8.1 7.5-16.3 14.5-24.4 21.1-40.6 32.7-78 50.7-103.7 50.7z m386.2-133.9c10.4 66.1 2.2 115.7-21.4 129.4-23.7 13.7-70.7-4-122.8-46.1-8.1-6.6-16.3-13.6-24.4-21.1 21.5-23.9 42.6-50.3 63-78.6 34.7-3.5 68.1-8.6 99.6-15.2 2.4 10.7 4.4 21.3 6 31.6z m69.3-119.9c-9.7 3.7-19.9 7.3-30.5 10.6-9.9-30.6-22.2-62.1-36.6-93.8 14.4-31.8 26.6-63.3 36.6-93.8 10.6 3.3 20.7 6.8 30.5 10.6 62.5 24 101.3 55.9 101.3 83.3s-38.8 59-101.3 83.1z"
    p-id="12721" fill="#1296db"></path>
</svg>