<svg width="32" height="32" xmlns="http://www.w3.org/2000/svg" fill="none">
  <script xmlns="" />
  <g clip-path="url(#clip0_503_7068)">


    <path
      d="M30.6956 13.6579L26.3656 6.546C25.025 4.34389 22.6333 3 20.0553 3H11.7178C9.13977 3 6.74811 4.34389 5.40742 6.546L1.0775 13.6579C-0.359167 16.0177 -0.359167 18.9821 1.0775 21.3421L5.40742 28.454C6.74811 30.6561 9.13977 32 11.7178 32H20.0553C22.6333 32 25.025 30.6561 26.3656 28.454L30.6956 21.3421C32.1322 18.9823 32.1322 16.0179 30.6956 13.6579Z"
      fill="#00C6FF" />
    <path
      d="M24.4938 24.0508L19.7 19.7117L19.792 19.5781C20.3796 18.7235 20.7912 17.752 20.9339 16.7247C21.5227 12.4893 18.0413 8.8788 13.8428 9.24717C10.6576 9.52655 8.10509 12.1289 7.88207 15.3185C7.61386 19.1508 10.6562 22.3549 14.4326 22.3549C15.434 22.3549 16.3965 22.1339 17.2932 21.698L17.4732 21.6104L22.5405 26.1978C22.8268 26.4584 23.1984 26.5899 23.5876 26.5741C23.9741 26.5556 24.331 26.3874 24.5918 26.1002C25.129 25.508 25.0854 24.5889 24.4938 24.0508ZM14.8603 19.9459C12.2207 20.2097 10.0109 18.0003 10.2743 15.3607C10.4695 13.4067 12.0495 11.826 14.0035 11.6303C16.6435 11.3659 18.8539 13.5759 18.5899 16.2161C18.3945 18.1701 16.8143 19.7506 14.8603 19.9459Z"
      fill="white" />
  </g>

</svg>