<svg width="200" height="200" viewBox="0 0 200 200" fill="none" xmlns="http://www.w3.org/2000/svg"
  class="h-12 w-12">
  <circle cx="100" cy="100" r="100" fill="black"></circle>
  <path
    d="M34.66 133H27.1V70.18H49.96C55.78 70.18 60.22 71.77 63.28 74.95C66.34 78.13 67.87 82.57 67.87 88.27C67.87 93.37 66.55 97.45 63.91 100.51C61.27 103.57 57.43 105.34 52.39 105.82L68.41 133H59.95L44.65 106.18H34.66V133ZM49.78 99.79C52.96 99.79 55.42 99.01 57.16 97.45C58.96 95.83 59.86 93.55 59.86 90.61V85.93C59.86 82.99 58.96 80.74 57.16 79.18C55.42 77.56 52.96 76.75 49.78 76.75H34.66V99.79H49.78ZM112.925 124.63H112.475C111.935 125.83 111.305 127 110.585 128.14C109.865 129.28 108.935 130.3 107.795 131.2C106.715 132.04 105.395 132.73 103.835 133.27C102.275 133.81 100.415 134.08 98.2548 134.08C91.4148 134.08 86.3148 131.32 82.9548 125.8C79.6548 120.28 78.0048 112.36 78.0048 102.04C78.0048 91.24 79.8348 83.05 83.4948 77.47C87.1548 71.89 92.7948 69.1 100.415 69.1C103.355 69.1 105.905 69.49 108.065 70.27C110.225 71.05 112.055 72.1 113.555 73.42C115.115 74.74 116.405 76.24 117.425 77.92C118.445 79.54 119.285 81.19 119.945 82.87L113.465 85.84C112.925 84.46 112.295 83.17 111.575 81.97C110.915 80.71 110.075 79.63 109.055 78.73C108.095 77.77 106.925 77.02 105.545 76.48C104.165 75.94 102.545 75.67 100.685 75.67C95.6448 75.67 91.9248 77.56 89.5248 81.34C87.1848 85.12 86.0148 90.16 86.0148 96.46V106.18C86.0148 109.36 86.2548 112.27 86.7348 114.91C87.2148 117.49 87.9948 119.74 89.0748 121.66C90.2148 123.58 91.6548 125.08 93.3948 126.16C95.1948 127.18 97.3848 127.69 99.9648 127.69C104.045 127.69 107.225 126.46 109.505 124C111.785 121.54 112.925 118.36 112.925 114.46V107.98H99.6948V101.95H119.945V133H112.925V124.63ZM134.85 70.18H156.18C161.58 70.18 165.81 71.65 168.87 74.59C171.93 77.53 173.46 81.46 173.46 86.38C173.46 90.16 172.53 93.13 170.67 95.29C168.87 97.45 166.53 98.98 163.65 99.88V100.15C167.19 100.99 170.1 102.58 172.38 104.92C174.66 107.2 175.8 110.53 175.8 114.91C175.8 117.43 175.38 119.8 174.54 122.02C173.7 124.24 172.5 126.16 170.94 127.78C169.44 129.4 167.64 130.69 165.54 131.65C163.5 132.55 161.28 133 158.88 133H134.85V70.18ZM156.63 126.43C160.11 126.43 162.84 125.65 164.82 124.09C166.8 122.53 167.79 120.13 167.79 116.89V113.2C167.79 110.02 166.8 107.65 164.82 106.09C162.84 104.47 160.11 103.66 156.63 103.66H142.41V126.43H156.63ZM155.37 97.45C158.55 97.45 161.04 96.76 162.84 95.38C164.64 93.94 165.54 91.78 165.54 88.9V85.39C165.54 82.51 164.64 80.35 162.84 78.91C161.04 77.47 158.55 76.75 155.37 76.75H142.41V97.45H155.37Z"
    fill="white"></path>
</svg>